<?xml version="1.0" standalone="no"?>
<!DOCTYPE svg PUBLIC "-//W3C//DTD SVG 20010904//EN"
        "http://www.w3.org/TR/2001/REC-SVG-20010904/DTD/svg10.dtd">
<svg version="1.0" xmlns="http://www.w3.org/2000/svg"
     width="100.000000pt" height="100.000000pt" viewBox="0 0 100.000000 100.000000"
     preserveAspectRatio="xMidYMid meet">
    <metadata>
        Created by potrace 1.16, written by Peter Selinger 2001-2019
    </metadata>
    <g transform="translate(0.000000,100.000000) scale(0.049261,-0.077519)"
       fill="#000000" stroke="none">
        <path d="M716 1085 c-55 -19 -107 -64 -133 -116 -49 -97 -17 -237 70 -300 l40
-29 -51 0 -52 0 0 -220 0 -220 60 0 59 0 3 115 3 116 100 -115 100 -115 57 -1
58 0 2 218 3 217 82 -165 c72 -144 83 -172 83 -217 l0 -53 55 0 55 0 0 49 c0
41 13 78 80 217 44 91 80 168 80 170 0 2 -26 4 -57 4 l-58 0 30 19 c44 27 74
63 85 102 6 19 10 98 10 176 l0 143 -60 0 -60 0 0 -130 c0 -75 -5 -139 -11
-154 -12 -25 -63 -56 -94 -56 -31 0 -82 31 -94 56 -6 15 -11 79 -11 154 l0
130 -61 0 -61 0 4 -65 c2 -36 3 -65 1 -65 -1 0 -10 16 -19 36 -43 91 -186 139
-298 99z m163 -139 c23 -22 36 -26 89 -26 l62 0 0 -60 0 -60 -63 0 c-51 0 -68
-4 -82 -20 -28 -31 -79 -44 -121 -30 -92 31 -100 182 -10 221 35 15 96 3 125
-25z m-74 -321 c28 0 62 3 78 8 l27 7 0 -117 -1 -118 -52 56 c-29 30 -76 83
-106 118 -51 59 -52 62 -25 54 16 -4 52 -8 79 -8z m424 -1 c21 -3 55 -1 76 5
21 6 40 9 42 7 5 -4 -85 -196 -91 -196 -4 0 -96 188 -96 197 0 3 7 2 16 -1 9
-3 33 -9 53 -12z"/>
    </g>
</svg>
